<svg id="Layer_1" data-name="Layer 1" xmlns="http://www.w3.org/2000/svg" viewBox="0 0 257 256"><defs><style>.cls-1{fill:#1aad19;}.cls-2{opacity:0.8;}.cls-3{fill:#fff;}</style></defs><title>icon</title><rect class="cls-1" width="257" height="256"/><rect class="cls-2" x="0.5" y="98" width="256" height="60"/><path class="cls-3" d="M31.31,136.17h-2L39.93,118.5h1.9Z" transform="translate(0.5 0)"/><path class="cls-3" d="M47.76,128.58v-3.73l-2.82,2-1-1.73,3.3-1.61-3.3-1.63,1-1.71,2.82,2V118.5h2v3.74l2.83-2,1,1.7-3.31,1.63,3.31,1.61-1,1.74-2.83-2v3.73Z" transform="translate(0.5 0)"/><path class="cls-3" d="M70.83,135.66,68.89,119h2L72,129.14l.15,1.69h.05l.22-1.69L74.18,119h2l2,10.56.2,1.61h.05l.13-1.62L79.79,119h1.7l-2,16.67H77.42l-2.15-11.3-.23-1.7H75l-.2,1.7-1.93,11.3Z" transform="translate(0.5 0)"/><path class="cls-3" d="M85.85,129.58v6.08H83.68V119h4.15a9,9,0,0,1,3.73.57,4.06,4.06,0,0,1,1.79,1.68,5,5,0,0,1,.62,2.47,5.67,5.67,0,0,1-.84,3,5.57,5.57,0,0,1-2.34,2.13,9.22,9.22,0,0,1-4.07.75Zm0-1.67h.93a6.58,6.58,0,0,0,3-.52,3.58,3.58,0,0,0,1.5-1.5,4.4,4.4,0,0,0,.53-2.12,2.91,2.91,0,0,0-.94-2.28q-.94-.84-3.71-.84h-1.3Z" transform="translate(0.5 0)"/><path class="cls-3" d="M110.43,135.66,108.5,119h2l1.13,10.15.15,1.69h.05l.22-1.69L113.79,119h2l2,10.56.2,1.61H118l.13-1.62L119.4,119h1.7l-2,16.67H117l-2.15-11.3-.23-1.7h-.05l-.2,1.7-1.93,11.3Z" transform="translate(0.5 0)"/><path class="cls-3" d="M133,134.87a10.64,10.64,0,0,1-4.53,1.13,5.33,5.33,0,0,1-2.9-.8,5.74,5.74,0,0,1-2-2.3,6.92,6.92,0,0,1-.77-3.2,7.17,7.17,0,0,1,.73-3.16,5.64,5.64,0,0,1,2-2.36,5.29,5.29,0,0,1,2.92-.84,4.28,4.28,0,0,1,3.43,1.52,7.14,7.14,0,0,1,1.29,4.7V130h-8.27a5,5,0,0,0,.52,2.28,3.71,3.71,0,0,0,1.37,1.55,3.64,3.64,0,0,0,1.93.52A9,9,0,0,0,133,133Zm-8-6.38h6v-.29a3.55,3.55,0,0,0-.72-2.33,2.37,2.37,0,0,0-1.92-.87,2.87,2.87,0,0,0-2.1.88A5,5,0,0,0,125.06,128.49Z" transform="translate(0.5 0)"/><path class="cls-3" d="M139.63,135.66V125.33H136.3v-1.67h5.33V134H145v1.67Zm-.32-16.33a1.16,1.16,0,0,1,.46-1,1.31,1.31,0,0,1,1.74,0,1.16,1.16,0,0,1,.46,1,1.15,1.15,0,0,1-.46,1,1.31,1.31,0,0,1-1.74,0A1.15,1.15,0,0,1,139.31,119.33Z" transform="translate(0.5 0)"/><path class="cls-3" d="M150.72,135.66h-2.31l4.71-6.26-4.41-5.74h2.57l3.11,4.05,3-4.05h2.27l-4.16,5.56,4.94,6.44h-2.57l-3.64-4.75Z" transform="translate(0.5 0)"/><path class="cls-3" d="M166,135.66V125.33H162.7v-1.67H168V134h3.34v1.67Zm-.32-16.33a1.16,1.16,0,0,1,.46-1,1.31,1.31,0,0,1,1.74,0,1.16,1.16,0,0,1,.46,1,1.15,1.15,0,0,1-.46,1,1.31,1.31,0,0,1-1.74,0A1.15,1.15,0,0,1,165.71,119.33Z" transform="translate(0.5 0)"/><path class="cls-3" d="M175.87,135.66v-12h2v2.62a6.78,6.78,0,0,1,2.07-2.17,4.45,4.45,0,0,1,2.43-.78,3.48,3.48,0,0,1,1.93.56,3,3,0,0,1,1.22,1.48,11.87,11.87,0,0,1,.35,3.59v6.7h-2v-7a9.82,9.82,0,0,0-.17-2.28,1.79,1.79,0,0,0-.61-.91,1.53,1.53,0,0,0-1-.35,3.65,3.65,0,0,0-2.26,1,8,8,0,0,0-2,2.5v7Z" transform="translate(0.5 0)"/><path class="cls-3" d="M206.19,128.58v-3.73l-2.82,2-1-1.73,3.3-1.61-3.3-1.63,1-1.71,2.82,2V118.5h2v3.74l2.83-2,1,1.7-3.31,1.63,3.31,1.61-1,1.74-2.83-2v3.73Z" transform="translate(0.5 0)"/><path class="cls-3" d="M216.14,136.17h-2l10.59-17.67h1.9Z" transform="translate(0.5 0)"/></svg>